<svg xmlns="http://www.w3.org/2000/svg" viewBox="0 0 128 128">
  <defs>
    <linearGradient id="g" x1="0" y1="0" x2="1" y2="1">
      <stop offset="0" stop-color="#3b82f6"/>
      <stop offset="1" stop-color="#06b6d4"/>
    </linearGradient>
  </defs>
  <rect width="128" height="128" rx="24" fill="#0b1220"/>
  <g fill="url(#g)">
    <path d="M32 64c0-17.673 14.327-32 32-32s32 14.327 32 32-14.327 32-32 32S32 81.673 32 64zm12 0c0 11.046 8.954 20 20 20s20-8.954 20-20-8.954-20-20-20-20 8.954-20 20z"/>
    <path d="M64 28l8 12H56l8-12zm0 72l-8-12h16l-8 12z"/>
  </g>
</svg>