<svg xmlns="http://www.w3.org/2000/svg" viewBox="0 0 512 512">
  <defs>
    <linearGradient id="g" x1="0" y1="0" x2="1" y2="1">
      <stop offset="0" stop-color="#3b82f6"/>
      <stop offset="1" stop-color="#06b6d4"/>
    </linearGradient>
  </defs>
  <rect width="512" height="512" rx="96" fill="#0b1220"/>
  <g fill="url(#g)">
    <path d="M128 256c0-70.692 57.308-128 128-128s128 57.308 128 128-57.308 128-128 128-128-57.308-128-128zm48 0c0 44.183 35.817 80 80 80s80-35.817 80-80-35.817-80-80-80-80 35.817-80 80z"/>
    <path d="M256 112l32 48h-64l32-48zm0 288l-32-48h64l-32 48z"/>
  </g>
</svg>